#!OML:ASF F:\VICON\USERDATA\INSTALL\rory3\rory3.ASF
:FULLY-SPECIFIED
:DEGREES
235
root 0.988825 17.8643 9.93418 -2.37972 -4.50154 -3.48634
lowerback 10.4052 2.35754 3.53479
upperback 0.413472 3.61302 1.10207
thorax -5.25395 1.70587 -1.36269
lowerneck -16.4893 -2.80211 -1.33096
upperneck 15.9492 -3.79991 1.55166
head 7.68834 -1.73966 0.297925
rclavicle -2.0655e-014 -5.81445e-015
rhumerus -26.1764 -17.6979 -79.3207
rradius 28.952
rwrist 2.5543
rhand -17.6541 21.3801
rfingers 7.12502
rthumb 8.60419 -8.42458
lclavicle -2.0655e-014 -5.81445e-015
lhumerus -36.062 11.6558 79.9071
lradius 17.0478
lwrist 0.604922
lhand -25.3957 16.7229
lfingers 7.12502
lthumb 1.12938 46.6997
rfemur 4.0641 1.1714 27.3683
rtibia 49.3714
rfoot 5.21255 2.9218
rtoes -4.48686
lfemur -21.1156 -1.89317 -19.3696
ltibia 28.3402
lfoot -4.83686 -7.2351
ltoes 5.2994
236
root 1.00878 17.8786 10.1426 -2.61557 -4.67687 -3.13093
lowerback 10.2347 2.37064 3.21509
upperback 0.561066 3.57653 1.02641
thorax -5.01933 1.70122 -1.24529
lowerneck -16.7502 -2.77175 -1.21635
upperneck 16.182 -3.76713 1.43813
head 7.80575 -1.72469 0.240595
rclavicle 1.74868e-015 1.83876e-015
rhumerus -26.3523 -18.0987 -79.2299
rradius 29.0845
rwrist 2.72346
rhand -17.0813 20.4737
rfingers 7.12502
rthumb 9.15686 -9.30747
lclavicle 1.74868e-015 1.83876e-015
lhumerus -36.1547 11.5135 79.9958
lradius 17.3743
lwrist 0.915362
lhand -25.6 15.4072
lfingers 7.12502
lthumb 0.932063 45.3849
rfemur 2.91561 0.781903 26.5718
rtibia 51.7052
rfoot 8.39006 3.54216
rtoes -0.866451
lfemur -20.082 -1.69341 -20.014
ltibia 28.4507
lfoot -5.50642 -6.51585
ltoes 3.55755
237
root 1.02272 17.8836 10.3262 -2.90876 -4.7034 -3.00711
lowerback 10.5266 2.31585 3.07964
upperback 0.632612 3.49712 1.01881
thorax -5.1183 1.6634 -1.17892
lowerneck -16.9405 -2.75359 -1.09764
upperneck 16.3637 -3.75693 1.34935
head 7.895 -1.71867 0.189319
rclavicle -1.75241e-014 -1.11319e-014
rhumerus -26.6046 -18.5166 -79.1436
rradius 29.1505
rwrist 2.98909
rhand -16.7278 18.4153
rfingers 7.12502
rthumb 9.49796 -11.3507
lclavicle -1.75241e-014 -1.11319e-014
lhumerus -36.1339 11.1601 80.1934
lradius 17.5532
lwrist 1.40093
lhand -25.6267 14.9959
lfingers 7.12502
lthumb 0.906335 44.9737
rfemur 1.66516 0.343354 26.1746
rtibia 54.1509
rfoot 11.7188 2.87596
rtoes 6.0103
lfemur -19.2076 -1.59769 -20.3395
ltibia 28.5415
lfoot -5.78707 -6.25903
ltoes 1.82095
238
root 1.02897 17.8872 10.5101 -3.17204 -4.70201 -2.81288
lowerback 10.9587 2.26631 2.79301
upperback 0.552837 3.41541 1.01155
thorax -5.46336 1.62231 -1.03752
lowerneck -16.7662 -2.76386 -1.33649
upperneck 16.4982 -3.77778 1.66396
head 7.92113 -1.71234 0.331277
rclavicle -1.00666e-014 1.23246e-014
rhumerus -27.0627 -18.7939 -78.9532
rradius 28.7317
rwrist 2.9819
rhand -16.4348 15.4682
rfingers 7.12502
rthumb 9.78066 -14.2846
lclavicle -1.00666e-014 1.23246e-014
lhumerus -36.3563 10.414 80.5444
lradius 17.9481
lwrist 2.38181
lhand -25.6812 15.2201
lfingers 7.12502
lthumb 0.853611 45.1982
rfemur 0.271374 -0.0595449 25.7885
rtibia 56.6511
rfoot 14.6838 1.602
rtoes 12.864
lfemur -18.4476 -1.37873 -20.759
ltibia 28.4422
lfoot -5.70437 -6.42455
ltoes -1.27109
239
root 1.03263 17.9171 10.7107 -3.41473 -4.82192 -2.17001
lowerback 11.0177 2.31166 2.00404
upperback 0.55727 3.37324 0.900881
thorax -5.53144 1.61904 -0.70838
lowerneck -16.4808 -2.72131 -1.52675
upperneck 16.5187 -3.71339 1.85406
head 7.88467 -1.67693 0.436272
rclavicle 3.18055e-014 -4.17448e-015
rhumerus -27.3706 -19.1434 -78.7462
rradius 28.1256
rwrist 3.08542
rhand -16.393 15.7217
rfingers 7.12502
rthumb 9.821 -14.0293
lclavicle 3.18055e-014 -4.17448e-015
lhumerus -36.6262 9.58992 80.9578
lradius 18.6225
lwrist 2.94714
lhand -25.669 15.854
lfingers 7.12502
lthumb 0.865448 45.832
rfemur -1.1058 -0.399273 24.8876
rtibia 59.099
rfoot 16.6303 1.31849
rtoes 12.5758
lfemur -17.0774 -1.31511 -21.5703
ltibia 28.3173
lfoot -7.5966 -6.01983
ltoes 0.623312
240
root 1.03979 17.939 10.9018 -3.57069 -4.77285 -1.44297
lowerback 10.9407 2.30415 1.22445
upperback 0.634189 3.25319 0.72367
thorax -5.44278 1.57888 -0.433283
lowerneck -16.5577 -2.66424 -1.4116
upperneck 16.5935 -3.63036 1.6808
head 7.9158 -1.64645 0.368493
rclavicle 3.18646e-014 1.22253e-014
rhumerus -27.5716 -19.3385 -78.6911
rradius 27.8564
rwrist 3.21963
rhand -16.3787 17.8481
rfingers 7.12502
rthumb 9.83483 -11.9022
lclavicle 3.18646e-014 1.22253e-014
lhumerus -36.5138 8.99166 81.2356
lradius 18.9639
lwrist 3.0812
lhand -25.5238 16.1494
lfingers 7.12502
lthumb 1.0057 46.1268
rfemur -2.56307 -0.989062 23.8723
rtibia 61.5085
rfoot 16.7583 1.0411
rtoes 10.6423
lfemur -16.0544 -1.55613 -22.4564
ltibia 28.1244
lfoot -7.84688 -5.55369
ltoes 1.27045
241
root 1.04954 17.9466 11.0761 -3.59014 -4.56398 -1.10273
lowerback 10.9778 2.17488 0.852681
upperback 0.615344 3.03243 0.654382
thorax -5.50156 1.478 -0.265679
lowerneck -16.7396 -2.64487 -1.28336
upperneck 16.8282 -3.60864 1.52713
head 8.02003 -1.64052 0.295551
rclavicle 1.9512e-014 -4.87022e-015
rhumerus -27.7473 -19.4424 -78.6526
rradius 27.4475
rwrist 3.18701
rhand -16.0381 17.5301
rfingers 7.12502
rthumb 10.1634 -12.2044
lclavicle 1.9512e-014 -4.87022e-015
lhumerus -36.2489 8.70791 81.3868
lradius 19.0122
lwrist 3.23392
lhand -25.1505 18.2043
lfingers 7.12502
lthumb 1.36624 48.1797
rfemur -4.14591 -1.75767 23.3178
rtibia 63.7826
rfoot 15.2834 -0.386272
rtoes 10.5711
lfemur -15.3599 -1.84955 -22.915
ltibia 27.8762
lfoot -8.03102 -5.49817
ltoes 3.2074
242
root 1.05706 17.9468 11.2562 -3.6791 -4.51135 -0.985641
lowerback 11.0743 2.0877 0.687082
upperback 0.537492 2.89822 0.653609
thorax -5.64668 1.41483 -0.158679
lowerneck -16.3978 -2.68196 -1.26977
upperneck 16.7999 -3.65902 1.49056
head 7.95023 -1.67007 0.27984
rclavicle -2.24844e-014 -1.19271e-014
rhumerus -28.029 -19.5531 -78.526
rradius 27.0232
rwrist 3.47516
rhand -15.9545 17.9087
rfingers 7.12502
rthumb 10.244 -11.8218
lclavicle -2.24844e-014 -1.19271e-014
lhumerus -36.241 8.21885 81.5808
lradius 19.1612
lwrist 3.82724
lhand -24.7455 19.7767
lfingers 7.12502
lthumb 1.75734 49.7492
rfemur -5.5883 -2.37437 23.0767
rtibia 65.832
rfoot 13.6286 -2.15388
rtoes 11.5871
lfemur -14.5809 -1.86381 -23.1659
ltibia 27.6014
lfoot -8.14705 -5.50064
ltoes 3.11516
243
root 1.06116 17.9571 11.4478 -3.8204 -4.44907 -0.684477
lowerback 10.9258 2.02135 0.251687
upperback 0.592088 2.75375 0.648275
thorax -5.52695 1.3558 0.109415
lowerneck -16.1407 -2.63997 -1.14052
upperneck 16.6352 -3.59728 1.31166
head 7.84329 -1.65338 0.211155
rclavicle 3.51756e-014 9.44227e-015
rhumerus -28.0253 -19.969 -78.3318
rradius 26.4593
rwrist 4.25905
rhand -16.1688 19.3358
rfingers 7.12502
rthumb 10.0373 -10.4049
lclavicle 3.51756e-014 9.44227e-015
lhumerus -36.1201 7.498 81.9625
lradius 19.3595
lwrist 4.44047
lhand -24.8444 19.5976
lfingers 7.12502
lthumb 1.66181 49.5708
rfemur -6.92603 -3.04158 22.6768
rtibia 67.5924
rfoot 11.1689 -3.53736
rtoes 8.52331
lfemur -13.8187 -1.71736 -23.6714
ltibia 27.4489
lfoot -8.29916 -5.27012
ltoes 0.846717
244
root 1.06474 17.9827 11.633 -3.90933 -4.28628 -0.72832
lowerback 10.9175 1.89907 0.212001
upperback 0.599846 2.59044 0.720072
thorax -5.51876 1.27742 0.232422
lowerneck -16.0532 -2.5397 -1.08733
upperneck 16.6333 -3.45042 1.19371
head 7.82219 -1.59256 0.181514
rclavicle -1.6788e-014 1.98785e-015
rhumerus -28.1135 -20.5305 -78.0672
rradius 25.829
rwrist 4.80416
rhand -15.9434 18.4963
rfingers 7.12502
rthumb 10.2547 -11.2337
lclavicle -1.6788e-014 1.98785e-015
lhumerus -35.9285 7.22026 82.1234
lradius 19.4845
lwrist 4.52971
lhand -24.8437 18.7441
lfingers 7.12502
lthumb 1.66255 48.7174
rfemur -8.22541 -3.7503 22.7053
rtibia 69.0462
rfoot 6.22677 -5.0003
rtoes -5.52469
lfemur -12.8351 -1.91682 -23.6711
ltibia 27.4264
lfoot -9.01483 -5.14278
ltoes 2.16985
245
root 1.06625 17.9939 11.8132 -4.04605 -4.20298 -1.07779
lowerback 10.9501 1.78989 0.485273
upperback 0.6759 2.48706 0.872593
thorax -5.4518 1.22187 0.254654
lowerneck -15.7753 -2.50426 -1.16122
upperneck 16.3455 -3.39002 1.23792
head 7.67963 -1.56765 0.220286
rclavicle -1.2424e-017 1.04362e-014
rhumerus -28.2126 -20.9191 -77.914
rradius 25.3928
rwrist 4.96633
rhand -15.9177 17.546
rfingers 7.12502
rthumb 10.2796 -12.1828
lclavicle -1.2424e-017 1.04362e-014
lhumerus -35.6087 7.16988 82.168
lradius 19.6543
lwrist 4.50907
lhand -25.0864 19.0487
lfingers 7.12502
lthumb 1.42813 49.0236
rfemur -9.34421 -4.27346 23.1078
rtibia 70.2984
rfoot 8.79894 -6.05803
rtoes 12.8639
lfemur -11.8878 -1.92306 -23.3715
ltibia 27.2852
lfoot -9.76867 -5.10027
ltoes 2.44212
